<svg id="Layer_1" style="enable-background:new 0 0 75 75;" version="1.1" viewBox="0 0 75 75" xml:space="preserve" xmlns="http://www.w3.org/2000/svg" xmlns:xlink="http://www.w3.org/1999/xlink"><style type="text/css">
	.st0{fill:#FFE100;}
	.st1{fill:#ED1C24;}
	.st2{fill:#F9A01B;}
	.st3{fill:#67923D;}
	.st4{fill:#9990C5;}
	.st5{fill:#406325;}
</style><g><g><g><path class="st5" d="M53.7,21.8L16,36.4c-1.2,0.5-1.1,2.2,0.1,2.6l9.6,2.8l3.6,11.3c0.4,1.2,1.9,1.5,2.7,0.7l4.9-5l9.7,7.1     c1.2,0.9,2.9,0.2,3.2-1.2L56.3,24C56.6,22.5,55.1,21.2,53.7,21.8z M49,28.6L31.5,44.1c-0.2,0.2-0.3,0.4-0.3,0.6l-0.7,6     c0,0.2-0.3,0.2-0.4,0l-2.8-8.9c-0.1-0.4,0-0.9,0.4-1.1l20.7-12.8C48.9,27.6,49.4,28.2,49,28.6z"/></g></g><g><g><g><g><path class="st5" d="M37.5,73.5c-9.7,0-19.5-1.7-29.1-5.1L7,67.9l-0.5-1.3c-6.8-19.3-6.8-38.9,0-58.2L7,7.1l1.3-0.5       C18,3.2,27.8,1.5,37.5,1.5S57,3.2,66.6,6.6L68,7.1l0.5,1.3c6.8,19.3,6.8,38.9,0,58.2L68,67.9l-1.3,0.5       C57,71.8,47.2,73.5,37.5,73.5z M11.7,63.3c8.6,2.9,17.3,4.3,25.8,4.3c8.6,0,17.2-1.4,25.8-4.3c5.7-17.1,5.7-34.5,0-51.6       c-8.6-2.9-17.3-4.3-25.8-4.3c-8.6,0-17.2,1.4-25.8,4.3C6,28.8,6,46.2,11.7,63.3z"/></g></g></g></g></g></svg>