<svg xmlns="http://www.w3.org/2000/svg" width="24" height="24"><path style="stroke:none;fill-rule:nonzero;fill:#000;fill-opacity:1" d="m23.898 19.137-.117-.364c-.285-.84-1.21-1.714-2.062-1.949l-3.157-.86c-.855-.234-2.074.079-2.699.708l-1.144 1.14a12.11 12.11 0 0 1-8.52-8.523l1.14-1.14c.626-.626.942-1.844.708-2.7l-.86-3.156C6.954 1.437 6.075.512 5.234.23L4.875.11c-.84-.278-2.04.003-2.668.628L.5 2.45C.195 2.75 0 3.621 0 3.621a20.172 20.172 0 0 0 5.902 14.48 20.15 20.15 0 0 0 14.434 5.903c.027 0 .922-.192 1.227-.496L23.27 21.8c.628-.625.91-1.824.628-2.664Zm0 0"/></svg>