<svg xmlns="http://www.w3.org/2000/svg" xml:space="preserve" viewBox="0 0 75 75" fill="aqua">
  <path d="M23.9 26.5c1.3 3.3 3.1 6.5 5.3 9.3.3.4.7.7 1.1 1 .6.4 1.1.3 1.4-.4.2-.7.5-2.1.5-2.8 0-1.9 0-3.2-.1-5.1-.1-1.2-.5-2.3-2.3-2.6-.6-.1-.6-.6-.2-1 .7-.9 1.8-1.1 2.9-1.2 1.8-.1 3.6 0 5.5 0 .7 0 1.5.1 2.2.2 1 .2 1.5.9 1.6 1.8.1.5.1 1 .1 1.5 0 2.1-.1 4.2-.2 6.2 0 .8 0 1.7.2 2.4.2 1.1 1 1.4 1.8.6 1-1 1.8-2.2 2.7-3.3 1.5-2.1 2.6-4.4 3.5-6.8.5-1.2.9-1.5 2.2-1.5h7.5c.4 0 .9 0 1.3.2.7.2.9.8.8 1.5-.4 1.6-1.3 3-2.2 4.4-1.5 2.2-3.1 4.3-4.7 6.4-.2.3-.4.6-.5.9-.6 1.1-.5 1.6.3 2.5 1.4 1.4 2.8 2.7 4.1 4.1 1 1 1.8 2.2 2.6 3.4 1 1.5.4 2.9-1.4 3.2-1.1.2-6.6 0-6.9 0-1.5 0-2.8-.5-3.8-1.5-1.2-1.1-2.2-2.3-3.3-3.5-.3-.4-.7-.7-1.1-1-.9-.7-1.8-.5-2.2.5-.4.9-.7 3.3-.7 3.5-.1 1.1-.8 1.8-2 1.8-3.5.2-6.9-.2-10-1.9-2.7-1.4-4.8-3.4-6.6-5.8-2.9-3.7-5.3-7.9-7.4-12.1-.1-.2-2.3-4.8-2.3-5-.2-.7 0-1.4.6-1.6.4-.1 7.4 0 7.6 0 .9 0 1.7.5 2.1 1.7z" class="st0"/>
  <path d="M37.5 73.5c-9.7 0-19.5-1.7-29.1-5.1L7 67.9l-.5-1.3a85.57 85.57 0 0 1 0-58.2L7 7.1l1.3-.5C18 3.2 27.8 1.5 37.5 1.5S57 3.2 66.6 6.6l1.4.5.5 1.3c6.8 19.3 6.8 38.9 0 58.2l-.5 1.3-1.3.5c-9.7 3.4-19.5 5.1-29.2 5.1zM11.7 63.3a80.7 80.7 0 0 0 25.8 4.3c8.6 0 17.2-1.4 25.8-4.3 5.7-17.1 5.7-34.5 0-51.6a80.7 80.7 0 0 0-25.8-4.3c-8.6 0-17.2 1.4-25.8 4.3a79.99 79.99 0 0 0 0 51.6z" class="st0"/>
</svg>