<svg id="Layer_1" style="enable-background:new 0 0 75 75;" version="1.1" viewBox="0 0 75 75" xml:space="preserve" xmlns="http://www.w3.org/2000/svg" xmlns:xlink="http://www.w3.org/1999/xlink"><style type="text/css">
	.st0{fill:#FFE100;}
	.st1{fill:#ED1C24;}
	.st2{fill:#F9A01B;}
	.st3{fill:#67923D;}
	.st4{fill:#9990C5;}
	.st5{fill:#406325;}
</style><g><g><g><g><path class="st4" d="M17.8,57.2l2.8-9.8c-1.8-3-2.7-6.4-2.7-10c0-10.8,8.8-19.7,19.7-19.7s19.7,8.8,19.7,19.7      s-8.8,19.7-19.7,19.7c-3.4,0-6.7-0.9-9.6-2.5L17.8,57.2z M28.4,51l0.6,0.4c2.6,1.6,5.5,2.4,8.5,2.4c9,0,16.3-7.3,16.3-16.3      s-7.3-16.3-16.3-16.3s-16.3,7.3-16.3,16.3c0,3.1,0.9,6.2,2.6,8.8l0.4,0.6l-1.6,5.6L28.4,51z"/><path class="st4" d="M32,28.3l-1.3-0.1c-0.4,0-0.8,0.1-1.1,0.4c-0.6,0.5-1.6,1.6-1.9,2.9c-0.5,2,0.2,4.5,2.1,7      c1.8,2.5,5.2,6.4,11.2,8.1c1.9,0.5,3.4,0.2,4.6-0.6c0.9-0.6,1.6-1.5,1.8-2.6l0.2-1c0.1-0.3-0.1-0.6-0.4-0.7l-4.3-2      c-0.3-0.1-0.6,0-0.8,0.2l-1.7,2.2c-0.1,0.2-0.3,0.2-0.5,0.2c-1.2-0.4-5-2-7.2-6.1c-0.1-0.2-0.1-0.4,0.1-0.5l1.6-1.9      c0.2-0.2,0.2-0.5,0.1-0.7l-1.9-4.3C32.5,28.5,32.3,28.3,32,28.3z"/></g></g></g><g><g><g><g><g><path class="st4" d="M37.5,73.5c-9.7,0-19.5-1.7-29.1-5.1L7,67.9l-0.5-1.3c-6.8-19.3-6.8-38.9,0-58.2L7,7.1l1.3-0.5        C18,3.2,27.8,1.5,37.5,1.5S57,3.2,66.6,6.6L68,7.1l0.5,1.3c6.8,19.3,6.8,38.9,0,58.2L68,67.9l-1.3,0.5        C57,71.8,47.2,73.5,37.5,73.5z M11.7,63.3c8.6,2.9,17.3,4.3,25.8,4.3c8.6,0,17.2-1.4,25.8-4.3c5.7-17.1,5.7-34.5,0-51.6        c-8.6-2.9-17.3-4.3-25.8-4.3c-8.6,0-17.2,1.4-25.8,4.3C6,28.8,6,46.2,11.7,63.3z"/></g></g></g></g></g></g></svg>