<svg xmlns="http://www.w3.org/2000/svg" xml:space="preserve" viewBox="0 0 75 75">
  <path d="m17.8 57.2 2.8-9.8a19.74 19.74 0 0 1 17-29.7c10.9 0 19.7 8.8 19.7 19.7A19.67 19.67 0 0 1 28 54.6l-10.2 2.6zM28.4 51l.6.4a16.3 16.3 0 1 0-5.2-5.1l.4.6-1.6 5.6 5.8-1.5z" class="st4"/>
  <path d="m32 28.3-1.3-.1c-.4 0-.8.1-1.1.4-.6.5-1.6 1.6-1.9 2.9-.5 2 .2 4.5 2.1 7C31.6 41 35 44.9 41 46.6c1.9.5 3.4.2 4.6-.6.9-.6 1.6-1.5 1.8-2.6l.2-1c.1-.3-.1-.6-.4-.7l-4.3-2c-.3-.1-.6 0-.8.2l-1.7 2.2c-.1.2-.3.2-.5.2-1.2-.4-5-2-7.2-6.1-.1-.2-.1-.4.1-.5l1.6-1.9c.2-.2.2-.5.1-.7l-1.9-4.3c-.1-.3-.3-.5-.6-.5z" class="st4"/>
  <path d="M37.5 73.5c-9.7 0-19.5-1.7-29.1-5.1L7 67.9l-.5-1.3a85.57 85.57 0 0 1 0-58.2L7 7.1l1.3-.5C18 3.2 27.8 1.5 37.5 1.5S57 3.2 66.6 6.6l1.4.5.5 1.3c6.8 19.3 6.8 38.9 0 58.2l-.5 1.3-1.3.5c-9.7 3.4-19.5 5.1-29.2 5.1zM11.7 63.3a80.7 80.7 0 0 0 25.8 4.3c8.6 0 17.2-1.4 25.8-4.3 5.7-17.1 5.7-34.5 0-51.6a80.7 80.7 0 0 0-25.8-4.3c-8.6 0-17.2 1.4-25.8 4.3a79.99 79.99 0 0 0 0 51.6z" class="st4"/>
</svg>